<svg width="1440" height="704" viewBox="0 0 1440 704" fill="none" xmlns="http://www.w3.org/2000/svg">
<path fill-rule="evenodd" clip-rule="evenodd" d="M1289.54 446.5C1324.03 446.5 1405.79 445.053 1439 446.5V0H0V700.621C42.0688 702.804 85.7979 704 131.121 704C651.054 704 840.511 446.5 1289.54 446.5Z" fill="url(#paint0_linear_2119_2)"/>
<path d="M1440 0V652.537C1440 652.537 1262 519.631 1034 519.631C806 519.631 685.5 704 421.5 704C157.5 704 0 546.612 0 546.612V0H1440Z" fill="url(#paint1_linear_2119_2)"/>
<mask id="mask0_2119_2" style="mask-type:luminance" maskUnits="userSpaceOnUse" x="0" y="0" width="1440" height="704">
<path d="M1440 0V652.537C1440 652.537 1262 519.631 1034 519.631C806 519.631 685.5 704 421.5 704C157.5 704 0 546.612 0 546.612V0H1440Z" fill="white"/>
</mask>
<g mask="url(#mask0_2119_2)">
<circle opacity="0.05" cx="894" cy="634" r="262" fill="white"/>
<circle opacity="0.02" cx="256" cy="-105" r="262" fill="white"/>
</g>
<defs>
<linearGradient id="paint0_linear_2119_2" x1="-666.432" y1="437.828" x2="-52.7159" y2="1589.72" gradientUnits="userSpaceOnUse">
<stop stop-color="#52B4DA"/>
<stop offset="1" stop-color="#1E3E85"/>
</linearGradient>
<linearGradient id="paint1_linear_2119_2" x1="-644.712" y1="457.365" x2="-18.1383" y2="1596.48" gradientUnits="userSpaceOnUse">
<stop stop-color="#1E3E85"/>
<stop offset="1" stop-color="#336DA6"/>
</linearGradient>
</defs>
</svg>
