<svg width="1440" height="569" viewBox="0 0 1440 569" fill="none" xmlns="http://www.w3.org/2000/svg">
<g clip-path="url(#clip0_2119_242)">
<path d="M1440 630.414V185.27C1440 185.27 1214 198.27 1017.5 159.27C821 120.27 634 50.7695 420 23.2695C206 -4.23047 0 0.769531 0 0.769531V630.414H1440Z" fill="url(#paint0_linear_2119_242)"/>
<path d="M1440 634.414V189.27C1440 189.27 1214 202.27 1017.5 163.27C821 124.27 634 54.7695 420 27.2695C206 -0.230469 0 4.76953 0 4.76953V634.414H1440Z" fill="url(#paint1_linear_2119_242)"/>
<mask id="mask0_2119_242" style="mask-type:luminance" maskUnits="userSpaceOnUse" x="0" y="4" width="1440" height="631">
<path d="M1440 634.414V189.27C1440 189.27 1214 202.27 1017.5 163.27C821 124.27 634 54.7695 420 27.2695C206 -0.230469 0 4.76953 0 4.76953V634.414H1440Z" fill="white"/>
</mask>
<g mask="url(#mask0_2119_242)">
<circle opacity="0.05" cx="262" cy="262" r="262" transform="matrix(1 0 0 -1 1060 369.27)" fill="white"/>
<circle opacity="0.02" cx="262" cy="262" r="262" transform="matrix(1 0 0 -1 -6 1036.27)" fill="white"/>
</g>
</g>
<defs>
<linearGradient id="paint0_linear_2119_242" x1="-644.712" y1="220.856" x2="-118.041" y2="-848.397" gradientUnits="userSpaceOnUse">
<stop stop-color="#52B4DA"/>
<stop offset="1" stop-color="#377999"/>
</linearGradient>
<linearGradient id="paint1_linear_2119_242" x1="-644.712" y1="224.856" x2="-118.041" y2="-844.397" gradientUnits="userSpaceOnUse">
<stop stop-color="#336DA6"/>
<stop offset="1" stop-color="#1E3E85"/>
</linearGradient>
<clipPath id="clip0_2119_242">
<rect width="1440" height="569" fill="white"/>
</clipPath>
</defs>
</svg>
